name C:\Users\Nicos\Documents\OpenSimProjects\SprintingProject\Study1\PredictiveResults\IC_pred_Sprinting_optimum_28-October-2023__01-01-41___HTD_Minus_2_p02_maxVel_01.mot
datacolumns 38
datarows 15
range 0.05600000 0.07080497
endheader
                time	/jointset/ground_pelvis/pelvis_tilt/value	/jointset/ground_pelvis/pelvis_list/value	/jointset/ground_pelvis/pelvis_rotation/value	/jointset/ground_pelvis/pelvis_tx/value	/jointset/ground_pelvis/pelvis_ty/value	/jointset/ground_pelvis/pelvis_tz/value	/jointset/hip_r/hip_flexion_r/value	/jointset/hip_r/hip_adduction_r/value	/jointset/hip_r/hip_rotation_r/value	/jointset/knee_r/knee_angle_r/value	/jointset/ankle_r/ankle_angle_r/value	/jointset/subtalar_r/subtalar_angle_r/value	/jointset/mtp_r/mtp_angle_r/value	/jointset/hip_l/hip_flexion_l/value	/jointset/hip_l/hip_adduction_l/value	/jointset/hip_l/hip_rotation_l/value	/jointset/knee_l/knee_angle_l/value	/jointset/ankle_l/ankle_angle_l/value	/jointset/subtalar_l/subtalar_angle_l/value	/jointset/mtp_l/mtp_angle_l/value	/jointset/back/lumbar_extension/value	/jointset/back/lumbar_bending/value	/jointset/back/lumbar_rotation/value	/jointset/acromial_r/arm_flex_r/value	/jointset/acromial_r/arm_add_r/value	/jointset/acromial_r/arm_rot_r/value	/jointset/elbow_r/elbow_flex_r/value	/jointset/radioulnar_r/pro_sup_r/value	/jointset/radius_hand_r/wrist_flex_r/value	/jointset/radius_hand_r/wrist_dev_r/value	/jointset/acromial_l/arm_flex_l/value	/jointset/acromial_l/arm_add_l/value	/jointset/acromial_l/arm_rot_l/value	/jointset/elbow_l/elbow_flex_l/value	/jointset/radioulnar_l/pro_sup_l/value	/jointset/radius_hand_l/wrist_flex_l/value	/jointset/radius_hand_l/wrist_dev_l/value	
          0.05600000	         -8.30806278	         -3.39145474	         -5.97157847	          0.00000000	          0.99520911	          0.30359644	         35.06887046	          2.86584297	          0.41335909	        -18.26429975	        -21.13472763	        -12.27936416	          6.55308568	         30.99637474	        -12.29253961	          3.44195052	       -118.53295332	         -5.45882029	        -16.99420481	         -3.54914029	        -18.63238132	          7.52389493	         -4.45239065	         -6.09382105	        -24.64959816	        -14.06151972	        109.43689632	         80.50934417	        -23.37887872	          5.83500747	         -0.45028262	        -19.25387146	        -13.54317553	         73.51448874	         54.95160605	         -1.06665943	          5.83324920	
          0.05662978	         -8.39062989	         -3.33871824	         -6.22662110	          0.00740136	          0.99472151	          0.30385607	         34.76203265	          2.95053938	          0.40742943	        -18.06202696	        -20.68585785	        -12.06950638	          6.23741859	         31.43524972	        -12.38527018	          3.34755422	       -118.84887536	         -5.23437594	        -17.01329339	         -3.13114589	        -18.50866683	          7.43427762	         -4.23621998	         -5.15638994	        -24.51957348	        -14.00113609	        109.83263582	         80.22951602	        -23.27926184	          5.91038195	         -0.90235735	        -19.02086319	        -13.35157331	         73.39033070	         55.32392428	         -1.14295669	          5.89325916	
          0.05861964	         -8.65062714	         -3.15819835	         -7.04968865	          0.03082034	          0.99309561	          0.30468900	         33.78128138	          3.20746340	          0.47208632	        -17.44523984	        -19.08761115	        -11.52350338	          5.27296588	         32.82286917	        -12.69444108	          3.04126779	       -119.83170784	         -4.53690949	        -17.06268243	         -1.94377799	        -18.10604515	          7.14118145	         -3.52383154	         -2.19693236	        -24.07814891	        -13.82724548	        111.06727714	         79.47413917	        -22.97857315	          6.10572940	         -2.34358101	        -18.28364380	        -12.68301768	         73.06945595	         56.40988753	         -1.36212978	          6.12703500	
          0.06006178	         -8.83708083	         -3.01258390	         -7.66012590	          0.04782472	          0.99183909	          0.30529887	         33.06120112	          3.37789987	          0.59403986	        -17.03240800	        -17.78996425	        -11.25644792	          4.68576516	         33.82887392	        -12.93071034	          2.81239144	       -120.52875453	         -4.04492520	        -17.09682085	         -1.20615959	        -17.80379522	          6.91876749	         -2.98235546	         -0.05565953	        -23.73402525	        -13.71478538	        111.95101763	         78.99710638	        -22.76539063	          6.22550866	         -3.40163578	        -17.74863617	        -12.14130602	         72.90189520	         57.16460440	         -1.50879495	          6.31696619	
          0.06006178	         -8.83708083	         -3.01258390	         -7.66012590	          0.04782472	          0.99183909	          0.30529887	         33.06120112	          3.37789987	          0.59403986	        -17.03240800	        -17.78996425	        -11.25644792	          4.68576516	         33.82887392	        -12.93071034	          2.81239144	       -120.52875453	         -4.04492520	        -17.09682085	         -1.20615959	        -17.80379522	          6.91876749	         -2.98235546	         -0.05565953	        -23.73402525	        -13.71478538	        111.95101763	         78.99710638	        -22.76539063	          6.22550866	         -3.40163578	        -17.74863617	        -12.14130602	         72.90189520	         57.16460440	         -1.50879495	          6.31696619	
          0.06069156	         -8.91789075	         -2.94493508	         -7.92970100	          0.05525855	          0.99127046	          0.30556538	         32.74479371	          3.44693177	          0.66556732	        -16.86397601	        -17.20440715	        -11.18086973	          4.47523044	         34.26844545	        -13.03649136	          2.71103953	       -120.82902403	         -3.83375374	        -17.11292090	         -0.92127105	        -17.66908571	          6.81910976	         -2.73996588	          0.87819708	        -23.57873958	        -13.66819106	        112.33470822	         78.80204974	        -22.67183363	          6.27517027	         -3.86774237	        -17.51491843	        -11.89034607	         72.84548682	         57.49663024	         -1.57168117	          6.39957198	
          0.06268142	         -9.16939945	         -2.71058848	         -8.79327072	          0.07877766	          0.98939669	          0.30640485	         31.74201676	          3.63581733	          0.96067805	        -16.40814032	        -15.22736468	        -11.05382835	          3.97956037	         35.65621845	        -13.37674302	          2.38130614	       -121.75966653	         -3.18723978	        -17.18429586	         -0.04880031	        -17.23327481	          6.49009998	         -1.95117105	          3.82044418	        -23.06946715	        -13.53283241	        113.53850603	         78.29878540	        -22.37503693	          6.39964220	         -5.35935887	        -16.77638896	        -11.04946124	         72.73659788	         58.52518821	         -1.76882963	          6.66279077	
          0.06412355	         -9.33781138	         -2.52055638	         -9.42578831	          0.09585503	          0.98798387	          0.30700360	         31.00383807	          3.73726739	          1.22482363	        -16.17129376	        -13.63375727	        -11.02766385	          3.78129651	         36.64978149	        -13.62405533	          2.13383760	       -122.41464510	         -2.73585345	        -17.25959965	          0.61918731	        -16.91904691	          6.23661130	         -1.36209300	          5.94436629	        -22.68297405	        -13.45298411	        114.40643948	         78.04215012	        -22.15734135	          6.45588292	         -6.45906905	        -16.24125305	        -10.40393154	         72.72351737	         59.22783929	         -1.90806805	          6.84645983	
          0.06412355	         -9.33781138	         -2.52055638	         -9.42578831	          0.09585503	          0.98798387	          0.30700360	         31.00383807	          3.73726739	          1.22482363	        -16.17129376	        -13.63375727	        -11.02766385	          3.78129651	         36.64978149	        -13.62405533	          2.13383760	       -122.41464510	         -2.73585345	        -17.25959965	          0.61918731	        -16.91904691	          6.23661130	         -1.36209300	          5.94436629	        -22.68297405	        -13.45298411	        114.40643948	         78.04215012	        -22.15734135	          6.45588292	         -6.45906905	        -16.24125305	        -10.40393154	         72.72351737	         59.22783929	         -1.90806805	          6.84645983	
          0.06475334	         -9.40524030	         -2.43199693	         -9.70268950	          0.10332149	          0.98735710	          0.30726092	         30.67653673	          3.77033885	          1.35067283	        -16.09751831	        -12.88547182	        -11.02462669	          3.73715271	         37.07777421	        -13.73094292	          2.02351840	       -122.69492076	         -2.54240225	        -17.29963512	          0.93082978	        -16.78499233	          6.12138605	         -1.10134078	          6.86959750	        -22.50927452	        -13.42518123	        114.78558615	         77.95431638	        -22.06187356	          6.47317216	         -6.94457701	        -16.00753546	        -10.11569170	         72.73661465	         59.51306709	         -1.97068852	          6.93048417	
          0.06674319	         -9.58378128	         -2.14096799	        -10.56752510	          0.12695045	          0.98536294	          0.30804033	         29.60772351	          3.82819334	          1.74948930	        -15.98682460	        -10.47054790	        -11.06891165	          3.76721001	         38.39958500	        -14.06449603	          1.68211623	       -123.55750395	         -1.93208192	        -17.44021713	          1.90394918	        -16.38730578	          5.75159289	         -0.27244275	          9.78417411	        -21.94675165	        -13.36854682	        115.98478796	         77.81268884	        -21.75434124	          6.47897151	         -8.49388677	        -15.26900557	         -9.18434143	         72.83843079	         60.51096273	         -2.16843577	          7.20096580	
          0.06818533	         -9.68233725	         -1.92383317	        -11.17743694	          0.14410763	          0.98391133	          0.30856452	         28.80204751	          3.82521842	          2.03140230	        -16.02310095	         -8.71068729	        -11.14326687	          3.94996436	         39.33475802	        -14.29994775	          1.45126025	       -124.16127013	         -1.48476377	        -17.54526833	          2.52250375	        -16.12333325	          5.48357419	          0.32672773	         11.88762199	        -21.52659983	        -13.36498126	        116.86094586	         77.80976817	        -21.52921294	          6.45212841	         -9.63254079	        -14.73387066	         -8.49548561	         72.97019304	         61.31381646	         -2.31290782	          7.40448469	
          0.06818533	         -9.68233725	         -1.92383317	        -11.17743694	          0.14410763	          0.98391133	          0.30856452	         28.80204751	          3.82521842	          2.03140230	        -16.02310095	         -8.71068729	        -11.14326687	          3.94996436	         39.33475802	        -14.29994775	          1.45126025	       -124.16127013	         -1.48476377	        -17.54526833	          2.52250375	        -16.12333325	          5.48357419	          0.32672773	         11.88762199	        -21.52659983	        -13.36498126	        116.86094586	         77.80976817	        -21.52921294	          6.45212841	         -9.63254079	        -14.73387066	         -8.49548561	         72.97019304	         61.31381646	         -2.31290782	          7.40448469	
          0.06881511	         -9.71747634	         -1.82880711	        -11.43693552	          0.15160798	          0.98327805	          0.30877976	         28.44193609	          3.81197651	          2.15040372	        -16.06862204	         -7.95129888	        -11.18524193	          4.07221148	         39.73855865	        -14.40021012	          1.35787850	       -124.41939489	         -1.28685864	        -17.58971514	          2.75243903	        -16.01474724	          5.36829099	          0.58586062	         12.80389469	        -21.33990900	        -13.37539351	        117.24725733	         77.82145837	        -21.43123414	          6.43805609	        -10.13428891	        -14.50034111	         -8.19217770	         73.04373900	         61.67157660	         -2.37820386	          7.49964164	
          0.07080497	         -9.80792050	         -1.52520717	        -12.23043311	          0.17532559	          0.98127342	          0.30940967	         27.28749019	          3.72368253	          2.54705732	        -16.33247142	         -5.47708403	        -11.32489971	          4.62799619	         41.01056936	        -14.70542314	          1.09245226	       -125.21269552	         -0.65275763	        -17.72014205	          3.28668541	        -15.68743666	          5.00818971	          1.39392991	         15.68714389	        -20.72968718	        -13.47207900	        118.48607977	         77.92116180	        -21.12121253	          6.39122636	        -11.74486487	        -13.76129476	         -7.23861813	         73.34545274	         62.72870980	         -2.57859128	          7.79056042	
